<?xml version="1.0" standalone="no"?>
<!DOCTYPE svg PUBLIC "-//W3C//DTD SVG 20010904//EN"
 "http://www.w3.org/TR/2001/REC-SVG-20010904/DTD/svg10.dtd">
<svg version="1.0" xmlns="http://www.w3.org/2000/svg"
 width="260.000000pt" height="260.000000pt" viewBox="0 0 260.000000 260.000000"
 preserveAspectRatio="xMidYMid meet">
<metadata>
Created by potrace 1.11, written by Peter Selinger 2001-2013
</metadata>
<g transform="translate(0.000000,260.000000) scale(0.100000,-0.100000)"
fill="#000000" stroke="none">
<path d="M70 2583 c-20 -10 -43 -33 -53 -53 -16 -33 -17 -99 -15 -1047 3
-1009 3 -1012 24 -1040 11 -15 39 -34 61 -42 85 -30 30 -80 1115 1006 892 893
997 1002 1004 1036 8 49 -12 103 -49 131 -28 21 -29 21 -1040 24 -948 2 -1014
1 -1047 -15z m669 -199 c119 -33 191 -118 199 -235 8 -109 -51 -209 -146 -248
l-32 -13 43 -28 c82 -52 96 -88 118 -298 5 -56 16 -122 24 -147 l13 -45 -133
0 -133 0 -10 48 c-6 26 -13 112 -15 192 -6 202 -30 250 -124 250 l-43 0 0
-245 0 -245 -125 0 -125 0 0 515 0 515 217 0 c166 0 230 -4 272 -16z"/>
<path d="M507 2304 c-4 -4 -7 -86 -7 -182 l0 -174 60 4 c96 7 131 53 131 173
0 86 -20 139 -60 159 -32 16 -114 29 -124 20z"/>
<path d="M2420 2199 c-34 -13 -1996 -1976 -2015 -2015 -8 -18 -15 -43 -15 -56
0 -37 34 -90 71 -110 32 -17 84 -18 1034 -18 950 0 1002 1 1034 18 19 10 43
34 53 53 17 32 18 84 18 1034 0 950 -1 1002 -18 1034 -31 58 -101 84 -162 60z
m-250 -850 c56 -24 112 -80 135 -135 17 -40 40 -172 32 -181 -3 -2 -25 -9 -49
-14 -24 -5 -51 -12 -60 -15 -16 -5 -18 3 -18 68 0 139 -64 208 -192 208 -98 0
-154 -35 -165 -103 -14 -87 30 -139 179 -212 135 -67 182 -99 246 -169 82 -90
114 -206 93 -332 -16 -89 -49 -152 -111 -207 -81 -73 -201 -101 -335 -78 -176
31 -258 127 -259 305 l-1 90 60 18 c33 10 62 18 65 18 3 0 4 -46 2 -103 -3
-91 -1 -107 20 -147 31 -61 88 -90 176 -90 109 0 162 48 162 147 0 81 -38 122
-180 198 -179 95 -252 173 -286 307 -32 123 -2 263 74 349 37 42 115 86 174
99 65 14 182 3 238 -21z"/>
</g>
</svg>
